<svg width="300" height="300" xmlns="http://www.w3.org/2000/svg" viewBox="0 0 100 100">
  <!-- Define gradient for background -->
  <defs>
    <linearGradient id="grad1" x1="0%" y1="0%" x2="100%" y2="100%">
      <stop offset="0%" style="stop-color:#5FA8A7;stop-opacity:1" />
      <stop offset="70%" style="stop-color:#3569A0;stop-opacity:1" />
      <stop offset="100%" style="stop-color:#FFD43B;stop-opacity:1" />
    </linearGradient>
  </defs>

  <!-- Circle representing backend systems with gradient fill -->
  <circle cx="50" cy="50" r="40" stroke="#4B8BBE" stroke-width="4" fill="url(#grad1)"/>

  <!-- Python logo symbol -->
  <path d="M40 30
           c0-6 5-10 10-10
           h10 c5 0 10 4 10 10
           v10 c0 5-5 10-10 10
           h-10 c-5 0-10-4-10-10
           z
           M60 70
           c0 6-5 10-10 10
           h-10 c-5 0-10-4-10-10
           v-10 c0-5 5-10 10-10
           h10 c5 0 10 5 10 10
           z"
           fill="#FFD43B"/>
</svg>
